<svg width="97" height="96" viewBox="0 0 97 96" fill="none" xmlns="http://www.w3.org/2000/svg">
<path d="M60.5 82C60.5 85.1826 59.2357 88.2348 56.9853 90.4853C54.7348 92.7357 51.6826 94 48.5 94C45.3174 94 42.2652 92.7357 40.0147 90.4853C37.7643 88.2348 36.5 85.1826 36.5 82H60.5Z" fill="white" stroke="#0C0C0C" stroke-width="3" stroke-linecap="round" stroke-linejoin="round"/>
<path d="M82.5 69.9992V43.9992C82.4924 37.0657 80.3652 30.3004 76.4037 24.6101C72.4422 18.9199 66.8357 14.5768 60.336 12.1632C59.8782 9.3519 58.4354 6.79514 56.2656 4.95003C54.0957 3.10493 51.3403 2.0918 48.492 2.0918C45.6437 2.0918 42.8883 3.10493 40.7184 4.95003C38.5486 6.79514 37.1058 9.3519 36.648 12.1632C30.149 14.576 24.5437 18.9194 20.5847 24.6101C16.6257 30.3009 14.5024 37.0667 14.5 43.9992V69.9992C14.5 73.1817 13.2357 76.234 10.9853 78.4844C8.73484 80.7349 5.6826 81.9992 2.5 81.9992H94.5C91.3174 81.9992 88.2652 80.7349 86.0147 78.4844C83.7643 76.234 82.5 73.1817 82.5 69.9992Z" fill="#E8CF78"/>
<path d="M48.5 2C45.635 2.00205 42.8652 3.02908 40.6915 4.89543C38.5177 6.76178 37.0835 9.34426 36.648 12.176C30.1532 14.5915 24.5515 18.9339 20.5931 24.6215C16.6348 30.3092 14.5088 37.0705 14.5 44V70C14.5 73.1826 13.2357 76.2348 10.9853 78.4853C8.73484 80.7357 5.6826 82 2.5 82H48.5V2Z" fill="#F7EBC3"/>
<path d="M82.5 69.9992V43.9992C82.4924 37.0657 80.3652 30.3004 76.4037 24.6101C72.4422 18.9199 66.8357 14.5768 60.336 12.1632C59.8782 9.3519 58.4354 6.79514 56.2656 4.95003C54.0957 3.10493 51.3403 2.0918 48.492 2.0918C45.6437 2.0918 42.8883 3.10493 40.7184 4.95003C38.5486 6.79514 37.1058 9.3519 36.648 12.1632C30.149 14.576 24.5437 18.9194 20.5847 24.6101C16.6257 30.3009 14.5024 37.0667 14.5 43.9992V69.9992C14.5 73.1818 13.2357 76.234 10.9853 78.4844C8.73484 80.7349 5.6826 81.9992 2.5 81.9992H94.5C91.3174 81.9992 88.2652 80.7349 86.0147 78.4844C83.7643 76.234 82.5 73.1818 82.5 69.9992Z" stroke="#0C0C0C" stroke-width="3" stroke-linecap="round" stroke-linejoin="round"/>
</svg>
