<svg width="24" height="24" viewBox="0 0 24 24" fill="none" xmlns="http://www.w3.org/2000/svg">
<path d="M9 12C9 15.866 12 19 12 19C12 19 15 15.866 15 12C15 8.13401 12 5 12 5C12 5 9 8.13401 9 12Z" stroke="#7B7B7B" stroke-width="1.5" stroke-linejoin="round"/>
<path d="M6.33095 10C4.11419 9.04619 2 9 2 9C2 9 2.09572 13.3814 4.85714 16.1429C7.61857 18.9043 12 19 12 19C12 19 16.3814 18.9043 19.1429 16.1429C21.9043 13.3814 22 9 22 9C22 9 19.8858 9.04619 17.6691 10" stroke="#7B7B7B" stroke-width="1.5" stroke-linecap="round" stroke-linejoin="round"/>
</svg>
