<svg width="25" height="24" viewBox="0 0 25 24" fill="none" xmlns="http://www.w3.org/2000/svg">
<path d="M10.8 21C10.9674 21.3044 11.2134 21.5583 11.5125 21.7352C11.8115 21.912 12.1526 22.0053 12.5 22.0053C12.8474 22.0053 13.1885 21.912 13.4875 21.7352C13.7866 21.5583 14.0326 21.3044 14.2 21M6.5 8C6.5 6.4087 7.13214 4.88258 8.25736 3.75736C9.38258 2.63214 10.9087 2 12.5 2C14.0913 2 15.6174 2.63214 16.7426 3.75736C17.8679 4.88258 18.5 6.4087 18.5 8C18.5 15 21.5 17 21.5 17H3.5C3.5 17 6.5 15 6.5 8Z" stroke="#7B7B7B" stroke-width="1.5" stroke-linecap="round" stroke-linejoin="round"/>
</svg>
