<svg width="84" height="91" viewBox="0 0 84 91" fill="none" xmlns="http://www.w3.org/2000/svg">
<g filter="url(#filter0_d_2426_13909)">
<path fill-rule="evenodd" clip-rule="evenodd" d="M42 0C25.4315 0 12 13.4315 12 30C12 43.5613 20.9982 55.0209 33.3498 58.7341L40.6972 67.7872C41.5735 68.8668 43.2322 68.8318 44.0621 67.7162L50.7719 58.6972C63.0609 54.9455 72 43.5167 72 30C72 13.4315 58.5685 0 42 0Z" fill="white"/>
</g>
<circle cx="42" cy="30" r="25" fill="#C1121F"/>
<path d="M27.832 22.9154L34.0795 16.6679C34.3431 16.4027 34.6566 16.1923 35.0018 16.0489C35.3471 15.9054 35.7173 15.8317 36.0912 15.832H47.9062C48.2801 15.8317 48.6503 15.9054 48.9956 16.0489C49.3408 16.1923 49.6543 16.4027 49.9179 16.6679L56.1654 22.9154M27.832 22.9154H56.1654M27.832 22.9154V27.1654C27.832 27.9168 28.1305 28.6375 28.6619 29.1688C29.1932 29.7002 29.9139 29.9987 30.6654 29.9987M56.1654 22.9154V27.1654C56.1654 27.9168 55.8669 28.6375 55.3355 29.1688C54.8041 29.7002 54.0835 29.9987 53.332 29.9987M30.6654 29.9987V41.332C30.6654 42.0835 30.9639 42.8042 31.4952 43.3355C32.0266 43.8669 32.7473 44.1654 33.4987 44.1654H50.4987C51.2501 44.1654 51.9708 43.8669 52.5022 43.3355C53.0335 42.8042 53.332 42.0835 53.332 41.332V29.9987M30.6654 29.9987C31.4931 29.9531 32.2836 29.6399 32.9179 29.1062C33.0869 28.984 33.2901 28.9183 33.4987 28.9183C33.7073 28.9183 33.9105 28.984 34.0795 29.1062C34.7138 29.6399 35.5043 29.9531 36.332 29.9987C37.1597 29.9531 37.9502 29.6399 38.5845 29.1062C38.7536 28.984 38.9568 28.9183 39.1654 28.9183C39.3739 28.9183 39.5772 28.984 39.7462 29.1062C40.3805 29.6399 41.171 29.9531 41.9987 29.9987C42.8264 29.9531 43.6169 29.6399 44.2512 29.1062C44.4202 28.984 44.6235 28.9183 44.832 28.9183C45.0406 28.9183 45.2438 28.984 45.4129 29.1062C46.0471 29.6399 46.8377 29.9531 47.6654 29.9987C48.4931 29.9531 49.2836 29.6399 49.9179 29.1062C50.0869 28.984 50.2901 28.9183 50.4987 28.9183C50.7073 28.9183 50.9105 28.984 51.0795 29.1062C51.7138 29.6399 52.5043 29.9531 53.332 29.9987M46.2487 44.1654V38.4987C46.2487 37.7473 45.9502 37.0266 45.4188 36.4952C44.8875 35.9639 44.1668 35.6654 43.4154 35.6654H40.582C39.8306 35.6654 39.1099 35.9639 38.5786 36.4952C38.0472 37.0266 37.7487 37.7473 37.7487 38.4987V44.1654" stroke="white" stroke-width="2" stroke-linecap="round" stroke-linejoin="round"/>
<defs>
<filter id="filter0_d_2426_13909" x="0.8" y="0" width="82.4" height="90.9762" filterUnits="userSpaceOnUse" color-interpolation-filters="sRGB">
<feFlood flood-opacity="0" result="BackgroundImageFix"/>
<feColorMatrix in="SourceAlpha" type="matrix" values="0 0 0 0 0 0 0 0 0 0 0 0 0 0 0 0 0 0 127 0" result="hardAlpha"/>
<feOffset dy="11.2"/>
<feGaussianBlur stdDeviation="5.6"/>
<feComposite in2="hardAlpha" operator="out"/>
<feColorMatrix type="matrix" values="0 0 0 0 0 0 0 0 0 0 0 0 0 0 0 0 0 0 0.15 0"/>
<feBlend mode="normal" in2="BackgroundImageFix" result="effect1_dropShadow_2426_13909"/>
<feBlend mode="normal" in="SourceGraphic" in2="effect1_dropShadow_2426_13909" result="shape"/>
</filter>
</defs>
</svg>
