<svg width="24" height="24" viewBox="0 0 24 24" fill="none" xmlns="http://www.w3.org/2000/svg">
<path d="M20.3817 3.46L16.0017 2C16.0017 3.06087 15.5803 4.07828 14.8302 4.82843C14.08 5.57857 13.0626 6 12.0017 6C10.9409 6 9.92347 5.57857 9.17332 4.82843C8.42318 4.07828 8.00175 3.06087 8.00175 2L3.62175 3.46C3.16913 3.61079 2.78533 3.91842 2.5396 4.32734C2.29388 4.73627 2.20243 5.21956 2.28175 5.69L2.86175 9.16C2.89982 9.39491 3.02043 9.60855 3.20189 9.76251C3.38335 9.91648 3.61377 10.0007 3.85175 10H6.00175L6.00175 20C6.00175 21.1 6.90175 22 8.00175 22L16.0017 22C16.5322 22 17.0409 21.7893 17.416 21.4142C17.791 21.0391 18.0017 20.5304 18.0017 20L18.0017 10H20.1517C20.3897 10.0007 20.6201 9.91648 20.8016 9.76251C20.9831 9.60855 21.1037 9.39491 21.1417 9.16L21.7217 5.69C21.8011 5.21956 21.7096 4.73627 21.4639 4.32734C21.2182 3.91842 20.8344 3.61079 20.3817 3.46Z" stroke="#7B7B7B" stroke-width="1.5" stroke-linecap="round" stroke-linejoin="round"/>
</svg>
