<svg width="32" height="32" viewBox="0 0 32 32" fill="none" xmlns="http://www.w3.org/2000/svg">
<g clip-path="url(#clip0_2505_1303)">
<path d="M28.6665 5.33325H3.33317C2.62658 5.33536 1.94952 5.61699 1.44988 6.11663C0.950244 6.61627 0.668614 7.29332 0.666504 7.99992V23.9999C0.668614 24.7065 0.950244 25.3836 1.44988 25.8832C1.94952 26.3828 2.62658 26.6645 3.33317 26.6666H28.6665C29.3737 26.6666 30.052 26.3856 30.5521 25.8855C31.0522 25.3854 31.3332 24.7072 31.3332 23.9999V7.99992C31.3332 7.29267 31.0522 6.6144 30.5521 6.1143C30.052 5.6142 29.3737 5.33325 28.6665 5.33325Z" fill="#F2F2F2"/>
<path d="M31.0002 25.5001V6.00049L27.9118 5.55931C27.6482 5.52166 27.3805 5.59068 27.168 5.75107L1 25.5005L2.5 26.5001H30.0002C30.5525 26.5001 31.0002 26.0524 31.0002 25.5001Z" fill="#EFD788"/>
<path d="M31.3332 7.99992V10.6666H0.666504V7.99992C0.668614 7.29332 0.950243 6.61627 1.44988 6.11663C1.94952 5.61699 2.62658 5.33536 3.33317 5.33325H28.6665C29.3737 5.33325 30.052 5.6142 30.5521 6.1143C31.0522 6.6144 31.3332 7.29267 31.3332 7.99992Z" stroke="#0C0C0C" stroke-width="1.5" stroke-linecap="round" stroke-linejoin="round"/>
<path d="M31.3332 10.6667V24.0001C31.3332 24.7073 31.0522 25.3856 30.5521 25.8857C30.052 26.3858 29.3737 26.6667 28.6665 26.6667H3.33317C2.62658 26.6646 1.94952 26.383 1.44988 25.8834C0.950243 25.3837 0.668614 24.7067 0.666504 24.0001V10.6667H31.3332Z" stroke="#0C0C0C" stroke-width="1.5" stroke-linecap="round" stroke-linejoin="round"/>
<path d="M27.3442 16H23.3442" stroke="#0C0C0C" stroke-width="1.5" stroke-linecap="round" stroke-linejoin="round"/>
<path d="M15.3439 16H4.67725" stroke="#0C0C0C" stroke-width="1.5" stroke-linecap="round" stroke-linejoin="round"/>
<path d="M8.67725 20H4.67725" stroke="#0C0C0C" stroke-width="1.5" stroke-linecap="round" stroke-linejoin="round"/>
</g>
<defs>
<clipPath id="clip0_2505_1303">
<rect width="32" height="32" fill="white"/>
</clipPath>
</defs>
</svg>
