<svg width="32" height="32" viewBox="0 0 32 32" fill="none" xmlns="http://www.w3.org/2000/svg">
<g clip-path="url(#clip0_2586_4054)">
<path d="M24.6445 0.677734H3.3112C2.6046 0.679845 1.92755 0.961474 1.42791 1.46111C0.928271 1.96075 0.646642 2.63781 0.644531 3.3444V18.0111C0.646642 18.7177 0.928271 19.3947 1.42791 19.8944C1.92755 20.394 2.6046 20.6756 3.3112 20.6777H27.3112V3.3444C27.3112 2.63716 27.0302 1.95888 26.5301 1.45878C26.0301 0.958686 25.3518 0.677734 24.6445 0.677734Z" fill="#E8CF78"/>
<path d="M3.3112 0.677734C2.6046 0.679845 1.92755 0.961474 1.42791 1.46111C0.928271 1.96075 0.646642 2.63781 0.644531 3.3444V18.0111C0.646216 18.4347 0.748808 18.8518 0.943809 19.2279C1.13881 19.604 1.42061 19.9282 1.76586 20.1737L21.2619 0.677734H3.3112Z" fill="#F2F2F2"/>
<path d="M27.3229 3.33268V5.99935H0.65625V3.33268C0.65836 2.62609 0.93999 1.94904 1.43963 1.4494C1.93927 0.949755 2.61632 0.668126 3.32292 0.666016H24.6562C25.3635 0.666016 26.0418 0.946967 26.5419 1.44706C27.042 1.94716 27.3229 2.62544 27.3229 3.33268Z" stroke="#0C0C0C" stroke-width="1.5" stroke-linecap="round" stroke-linejoin="round"/>
<path d="M23.3346 11.3262H20.668" stroke="#0C0C0C" stroke-width="1.5" stroke-linecap="round" stroke-linejoin="round"/>
<path d="M13.9987 11.3262H3.33203" stroke="#0C0C0C" stroke-width="1.5" stroke-linecap="round" stroke-linejoin="round"/>
<path d="M7.33203 15.334H3.33203" stroke="#0C0C0C" stroke-width="1.5" stroke-linecap="round" stroke-linejoin="round"/>
<path d="M27.3346 12.6608V5.99414H0.667969V17.9941C0.667969 18.7014 0.94892 19.3797 1.44902 19.8798C1.94911 20.3799 2.62739 20.6608 3.33464 20.6608H12.0013" stroke="#0C0C0C" stroke-width="1.5" stroke-linecap="round" stroke-linejoin="round"/>
<path d="M23.293 29.334C24.4797 29.334 25.6397 28.9821 26.6264 28.3228C27.6131 27.6635 28.3821 26.7264 28.8362 25.6301C29.2904 24.5337 29.4092 23.3273 29.1777 22.1634C28.9462 20.9996 28.3747 19.9305 27.5356 19.0913C26.6965 18.2522 25.6274 17.6808 24.4635 17.4493C23.2996 17.2178 22.0932 17.3366 20.9969 17.7907C19.9005 18.2448 18.9634 19.0139 18.3042 20.0006C17.6449 20.9873 17.293 22.1473 17.293 23.334C17.293 24.9253 17.9251 26.4514 19.0503 27.5766C20.1755 28.7018 21.7017 29.334 23.293 29.334Z" fill="#E8CF78"/>
<path d="M19.9753 24.666H15.3086V29.3327" stroke="#0C0C0C" stroke-width="1.5" stroke-linecap="round" stroke-linejoin="round"/>
<path d="M30.5333 26.3087C29.9864 27.9124 28.9076 29.281 27.4759 30.1873C26.0442 31.0937 24.3457 31.4832 22.6621 31.2915C20.9785 31.0997 19.4111 30.3381 18.22 29.1329C17.0288 27.9278 16.2855 26.3517 16.1133 24.666" stroke="#0C0C0C" stroke-width="1.5" stroke-linecap="round" stroke-linejoin="round"/>
<path d="M26.6406 22.0007H31.3073V17.334" stroke="#0C0C0C" stroke-width="1.5" stroke-linecap="round" stroke-linejoin="round"/>
<path d="M16.0859 20.3541C16.6346 18.7521 17.7141 17.3857 19.1455 16.4811C20.5769 15.5765 22.2744 15.188 23.9568 15.3799C25.6391 15.5719 27.2055 16.3329 28.3963 17.5367C29.5871 18.7405 30.3309 20.315 30.5046 21.9994" stroke="#0C0C0C" stroke-width="1.5" stroke-linecap="round" stroke-linejoin="round"/>
</g>
<defs>
<clipPath id="clip0_2586_4054">
<rect width="32" height="32" fill="white"/>
</clipPath>
</defs>
</svg>
