<svg width="33" height="32" viewBox="0 0 33 32" fill="none" xmlns="http://www.w3.org/2000/svg">
<g clip-path="url(#clip0_2586_4035)">
<path d="M31.6835 29.9996V22L16.0337 18.1317C15.7018 18.0497 15.351 18.1429 15.1036 18.3789L1.87109 30.9996H30.6835C31.2358 30.9996 31.6835 30.5519 31.6835 29.9996Z" fill="#E8CF78"/>
<path d="M31.8346 22H22.5013V23.3333C22.4992 24.0399 22.2176 24.717 21.7179 25.2166C21.2183 25.7163 20.5412 25.9979 19.8346 26H13.168C12.4614 25.9979 11.7843 25.7163 11.2847 25.2166C10.785 24.717 10.5034 24.0399 10.5013 23.3333V22H1.16797L5.44797 14.6667C5.56431 14.4652 5.73136 14.2976 5.93252 14.1806C6.13368 14.0637 6.36195 14.0014 6.59464 14H26.3946C26.6296 13.9991 26.8606 14.0602 27.0643 14.1773C27.268 14.2944 27.4372 14.4632 27.5546 14.6667L31.8346 22Z" fill="#F2F2F2"/>
<path d="M25.1654 11.3327V8.66602C22.1266 8.52135 19.1325 9.44085 16.6988 11.2662C14.2651 13.0915 12.544 15.7083 11.832 18.666C11.832 18.666 11.832 3.33268 25.1654 3.33268V0.666016L31.832 5.99935L25.1654 11.3327Z" fill="#F2F2F2"/>
<path d="M31.8346 30C31.8346 30.3536 31.6942 30.6928 31.4441 30.9428C31.1941 31.1929 30.8549 31.3333 30.5013 31.3333H2.5013C2.14768 31.3333 1.80854 31.1929 1.55849 30.9428C1.30844 30.6928 1.16797 30.3536 1.16797 30V22H10.5013V23.3333C10.5034 24.0399 10.785 24.717 11.2847 25.2166C11.7843 25.7163 12.4614 25.9979 13.168 26H19.8346C20.5412 25.9979 21.2183 25.7163 21.7179 25.2166C22.2176 24.717 22.4992 24.0399 22.5013 23.3333V22H31.8346V30Z" stroke="#0C0C0C" stroke-width="1.5" stroke-linecap="round" stroke-linejoin="round"/>
<path d="M19.832 14H26.4C26.6334 14.0007 26.8625 14.0627 27.0644 14.1796C27.2663 14.2966 27.434 14.4646 27.5507 14.6667L31.832 22" stroke="#0C0C0C" stroke-width="1.5" stroke-linecap="round" stroke-linejoin="round"/>
<path d="M1.16797 22L5.4493 14.6667C5.56598 14.4646 5.73367 14.2966 5.93559 14.1796C6.13751 14.0627 6.3666 14.0007 6.59997 14H9.16797" stroke="#0C0C0C" stroke-width="1.5" stroke-linecap="round" stroke-linejoin="round"/>
<path d="M26.7908 9.92382L31.5 6L26.6459 1.89272C25.996 1.34279 25 1.80475 25 2.65611V8.5L25.17 9.35136C25.3185 10.095 26.2082 10.4092 26.7908 9.92382Z" fill="#E8CF78"/>
<path d="M25.1654 11.3327V8.66602C22.1266 8.52135 19.1325 9.44085 16.6988 11.2662C14.2651 13.0915 12.544 15.7083 11.832 18.666C11.832 18.666 11.832 3.33268 25.1654 3.33268V0.666016L31.832 5.99935L25.1654 11.3327Z" stroke="#0C0C0C" stroke-width="1.5" stroke-linecap="round" stroke-linejoin="round"/>
</g>
<defs>
<clipPath id="clip0_2586_4035">
<rect width="32" height="32" fill="white" transform="translate(0.5)"/>
</clipPath>
</defs>
</svg>
