<svg width="97" height="96" viewBox="0 0 97 96" fill="none" xmlns="http://www.w3.org/2000/svg">
<g clip-path="url(#clip0_2426_12855)">
<path d="M20.5 47C20.5 50.5457 21.1984 54.0567 22.5553 57.3325C23.9121 60.6082 25.9009 63.5847 28.4081 66.0919C30.9153 68.5991 33.8918 70.5879 37.1675 71.9447C40.4433 73.3016 43.9543 74 47.5 74C51.0457 74 54.5567 73.3016 57.8325 71.9447C61.1082 70.5879 64.0847 68.5991 66.5919 66.0919C69.0991 63.5847 71.0879 60.6082 72.4447 57.3325C73.8016 54.0567 74.5 50.5457 74.5 47C74.5 43.4543 73.8016 39.9433 72.4447 36.6675C71.0879 33.3918 69.0991 30.4153 66.5919 27.9081C64.0847 25.4009 61.1082 23.4121 57.8325 22.0553C54.5567 20.6984 51.0457 20 47.5 20C43.9543 20 40.4433 20.6984 37.1675 22.0553C33.8918 23.4121 30.9153 25.4009 28.4081 27.9081C25.9009 30.4153 23.9121 33.3918 22.5553 36.6675C21.1984 39.9433 20.5 43.4543 20.5 47Z" fill="#EFD788"/>
<path d="M20.5 10C20.5 12.6522 21.5536 15.1957 23.4289 17.0711C25.3043 18.9464 27.8478 20 30.5 20C33.1522 20 35.6957 18.9464 37.5711 17.0711C39.4464 15.1957 40.5 12.6522 40.5 10C40.5 7.34784 39.4464 4.8043 37.5711 2.92893C35.6957 1.05357 33.1522 0 30.5 0C27.8478 0 25.3043 1.05357 23.4289 2.92893C21.5536 4.8043 20.5 7.34784 20.5 10Z" fill="#F7EBC3"/>
<path d="M0.5 34C0.5 36.1217 1.34285 38.1566 2.84315 39.6569C4.34344 41.1571 6.37827 42 8.5 42C10.6217 42 12.6566 41.1571 14.1569 39.6569C15.6571 38.1566 16.5 36.1217 16.5 34C16.5 31.8783 15.6571 29.8434 14.1569 28.3431C12.6566 26.8429 10.6217 26 8.5 26C6.37827 26 4.34344 26.8429 2.84315 28.3431C1.34285 29.8434 0.5 31.8783 0.5 34Z" fill="#F7EBC3"/>
<path d="M80.5 26C80.5 28.1217 81.3429 30.1566 82.8431 31.6569C84.3434 33.1571 86.3783 34 88.5 34C90.6217 34 92.6566 33.1571 94.1569 31.6569C95.6571 30.1566 96.5 28.1217 96.5 26C96.5 23.8783 95.6571 21.8434 94.1569 20.3431C92.6566 18.8429 90.6217 18 88.5 18C86.3783 18 84.3434 18.8429 82.8431 20.3431C81.3429 21.8434 80.5 23.8783 80.5 26Z" fill="#F7EBC3"/>
<path d="M48.5 86C48.5 88.6522 49.5536 91.1957 51.4289 93.0711C53.3043 94.9464 55.8478 96 58.5 96C61.1522 96 63.6957 94.9464 65.5711 93.0711C67.4464 91.1957 68.5 88.6522 68.5 86C68.5 83.3478 67.4464 80.8043 65.5711 78.9289C63.6957 77.0536 61.1522 76 58.5 76C55.8478 76 53.3043 77.0536 51.4289 78.9289C49.5536 80.8043 48.5 83.3478 48.5 86Z" fill="#F7EBC3"/>
<path d="M4.5 82C4.5 84.6522 5.55357 87.1957 7.42893 89.0711C9.3043 90.9464 11.8478 92 14.5 92C17.1522 92 19.6957 90.9464 21.5711 89.0711C23.4464 87.1957 24.5 84.6522 24.5 82C24.5 79.3478 23.4464 76.8043 21.5711 74.9289C19.6957 73.0536 17.1522 72 14.5 72C11.8478 72 9.3043 73.0536 7.42893 74.9289C5.55357 76.8043 4.5 79.3478 4.5 82Z" fill="#F7EBC3"/>
<path d="M46.5 12C46.5 12 48.5 42 48.5 54" stroke="#0C0C0C" stroke-width="3" stroke-linecap="round" stroke-linejoin="round"/>
<path d="M48.5 54C48.5 54 54.5 34 72.5 28" stroke="#0C0C0C" stroke-width="3" stroke-linecap="round" stroke-linejoin="round"/>
<path d="M8.5 54C21.4024 49.2057 35.5976 49.2057 48.5 54C45.7739 48.2617 41.8728 43.1602 37.0493 39.0258C32.2259 34.8914 26.5877 31.8164 20.5 30" stroke="#0C0C0C" stroke-width="3" stroke-linecap="round" stroke-linejoin="round"/>
<path d="M24.5 74.0009C24.5 74.0009 32.5 54.0009 48.5 54.0009C48.5 54.0009 66.62 44.6369 83.388 52.3049" stroke="#0C0C0C" stroke-width="3" stroke-linecap="round" stroke-linejoin="round"/>
<path d="M44.5028 64C41.7387 68.8701 40.3557 74.4021 40.5028 80" stroke="#0C0C0C" stroke-width="3" stroke-linecap="round" stroke-linejoin="round"/>
<path d="M48.5 54C57.2287 58.9486 64.7443 65.781 70.5 74" stroke="#0C0C0C" stroke-width="3" stroke-linecap="round" stroke-linejoin="round"/>
<path d="M30.5 6V14" stroke="#0C0C0C" stroke-width="3" stroke-linecap="round" stroke-linejoin="round"/>
<path d="M34.5 10H26.5" stroke="#0C0C0C" stroke-width="3" stroke-linecap="round" stroke-linejoin="round"/>
<path d="M6.5 30V38" stroke="#0C0C0C" stroke-width="3" stroke-linecap="round" stroke-linejoin="round"/>
<path d="M10.5 34H2.5" stroke="#0C0C0C" stroke-width="3" stroke-linecap="round" stroke-linejoin="round"/>
<path d="M58.5 82V90" stroke="#0C0C0C" stroke-width="3" stroke-linecap="round" stroke-linejoin="round"/>
<path d="M62.5 86H54.5" stroke="#0C0C0C" stroke-width="3" stroke-linecap="round" stroke-linejoin="round"/>
<path d="M90.5 22V30" stroke="#0C0C0C" stroke-width="3" stroke-linecap="round" stroke-linejoin="round"/>
<path d="M94.5 26H86.5" stroke="#0C0C0C" stroke-width="3" stroke-linecap="round" stroke-linejoin="round"/>
<path d="M14.5 78V86" stroke="#0C0C0C" stroke-width="3" stroke-linecap="round" stroke-linejoin="round"/>
<path d="M18.5 82H10.5" stroke="#0C0C0C" stroke-width="3" stroke-linecap="round" stroke-linejoin="round"/>
<path d="M62.5 9C62.7652 9 63.0196 9.10536 63.2071 9.29289C63.3946 9.48043 63.5 9.73478 63.5 10" stroke="#0C0C0C" stroke-width="3" stroke-linecap="round" stroke-linejoin="round"/>
<path d="M61.5 10C61.5 9.73478 61.6054 9.48043 61.7929 9.29289C61.9804 9.10536 62.2348 9 62.5 9" stroke="#0C0C0C" stroke-width="3" stroke-linecap="round" stroke-linejoin="round"/>
<path d="M62.5 11C62.2348 11 61.9804 10.8946 61.7929 10.7071C61.6054 10.5196 61.5 10.2652 61.5 10" stroke="#0C0C0C" stroke-width="3" stroke-linecap="round" stroke-linejoin="round"/>
<path d="M63.5 10C63.5 10.2652 63.3946 10.5196 63.2071 10.7071C63.0196 10.8946 62.7652 11 62.5 11" stroke="#0C0C0C" stroke-width="3" stroke-linecap="round" stroke-linejoin="round"/>
<path d="M10.5 11C10.7652 11 11.0196 11.1054 11.2071 11.2929C11.3946 11.4804 11.5 11.7348 11.5 12" stroke="#0C0C0C" stroke-width="3" stroke-linecap="round" stroke-linejoin="round"/>
<path d="M9.5 12C9.5 11.7348 9.60536 11.4804 9.79289 11.2929C9.98043 11.1054 10.2348 11 10.5 11" stroke="#0C0C0C" stroke-width="3" stroke-linecap="round" stroke-linejoin="round"/>
<path d="M10.5 13C10.2348 13 9.98043 12.8946 9.79289 12.7071C9.60536 12.5196 9.5 12.2652 9.5 12" stroke="#0C0C0C" stroke-width="3" stroke-linecap="round" stroke-linejoin="round"/>
<path d="M11.5 12C11.5 12.2652 11.3946 12.5196 11.2071 12.7071C11.0196 12.8946 10.7652 13 10.5 13" stroke="#0C0C0C" stroke-width="3" stroke-linecap="round" stroke-linejoin="round"/>
<path d="M80.5 63C80.7652 63 81.0196 63.1054 81.2071 63.2929C81.3946 63.4804 81.5 63.7348 81.5 64" stroke="#0C0C0C" stroke-width="3" stroke-linecap="round" stroke-linejoin="round"/>
<path d="M79.5 64C79.5 63.7348 79.6054 63.4804 79.7929 63.2929C79.9804 63.1054 80.2348 63 80.5 63" stroke="#0C0C0C" stroke-width="3" stroke-linecap="round" stroke-linejoin="round"/>
<path d="M80.5 65C80.2348 65 79.9804 64.8946 79.7929 64.7071C79.6054 64.5196 79.5 64.2652 79.5 64" stroke="#0C0C0C" stroke-width="3" stroke-linecap="round" stroke-linejoin="round"/>
<path d="M81.5 64C81.5 64.2652 81.3946 64.5196 81.2071 64.7071C81.0196 64.8946 80.7652 65 80.5 65" stroke="#0C0C0C" stroke-width="3" stroke-linecap="round" stroke-linejoin="round"/>
</g>
<defs>
<clipPath id="clip0_2426_12855">
<rect width="96" height="96" fill="white" transform="translate(0.5)"/>
</clipPath>
</defs>
</svg>
