<svg width="24" height="24" viewBox="0 0 24 24" fill="none" xmlns="http://www.w3.org/2000/svg">
<path d="M7 20.9995H17M11.38 11.9995C10.7744 12.0051 10.189 11.7816 9.74128 11.3737C9.29357 10.9658 9.01664 10.4037 8.96603 9.80014C8.91541 9.19659 9.09487 8.59623 9.46839 8.11946C9.84191 7.6427 10.3819 7.32478 10.98 7.22948C10.8842 6.80571 10.9053 6.36389 11.0409 5.95115C11.1766 5.53841 11.4217 5.17023 11.7502 4.88589C12.0787 4.60155 12.4782 4.4117 12.9061 4.3366C13.334 4.26151 13.7743 4.30398 14.18 4.45948C14.3576 4.17984 14.5912 3.94001 14.8661 3.75508C15.141 3.57015 15.4511 3.44413 15.7771 3.38495C16.1031 3.32577 16.4377 3.33471 16.7601 3.41122C17.0824 3.48772 17.3854 3.63013 17.65 3.82948C18.1116 3.4667 18.6901 3.28569 19.2761 3.32068C19.8621 3.35566 20.415 3.60423 20.8301 4.01935C21.2452 4.43447 21.4938 4.98735 21.5288 5.57337C21.5638 6.15939 21.3828 6.73792 21.02 7.19948C21.2458 7.49941 21.3981 7.84813 21.4646 8.21761C21.5312 8.58709 21.5101 8.96703 21.4031 9.32689C21.2961 9.68675 21.1062 10.0165 20.8486 10.2896C20.591 10.5627 20.273 10.7716 19.92 10.8995C20.0112 11.2594 20.0215 11.6351 19.95 11.9995M13 11.9995L17 7.99948M10.9 7.24948C10.3515 6.66475 9.63955 6.25882 8.85698 6.0846C8.0744 5.91039 7.25749 5.97597 6.51273 6.27279C5.76797 6.56962 5.1299 7.08392 4.6817 7.74866C4.23349 8.41341 3.99594 9.19776 4 9.99948C4 10.7295 4.2 11.4095 4.54 11.9995M12 20.9995C14.3869 20.9995 16.6761 20.0513 18.364 18.3634C20.0518 16.6756 21 14.3864 21 11.9995H3C3 14.3864 3.94821 16.6756 5.63604 18.3634C7.32387 20.0513 9.61305 20.9995 12 20.9995Z" stroke="#0C0C0C" stroke-width="1.5" stroke-linecap="round" stroke-linejoin="round"/>
</svg>
