<svg width="24" height="24" viewBox="0 0 24 24" fill="none" xmlns="http://www.w3.org/2000/svg">
<g clip-path="url(#clip0_2970_30746)">
<path d="M18.75 14.25L15 18L9 16.5L3.75 12.75" stroke="#BD8B25" stroke-width="1.5" stroke-linecap="round" stroke-linejoin="round"/>
<path d="M6.81641 6.62156L12.0027 5.25L17.1889 6.62156" stroke="#BD8B25" stroke-width="1.5" stroke-linecap="round" stroke-linejoin="round"/>
<path d="M3.22171 5.66427L0.829208 10.4511C0.740292 10.6289 0.725599 10.8348 0.788356 11.0234C0.851113 11.212 0.986186 11.368 1.1639 11.4571L3.74952 12.7499L6.81327 6.62146L4.22858 5.32958C4.1405 5.28541 4.04458 5.25903 3.9463 5.25194C3.84801 5.24486 3.7493 5.25721 3.65579 5.28829C3.56229 5.31937 3.47582 5.36857 3.40134 5.43309C3.32686 5.4976 3.26582 5.57616 3.22171 5.66427Z" stroke="#BD8B25" stroke-width="1.5" stroke-linecap="round" stroke-linejoin="round"/>
<path d="M20.2473 12.7499L22.833 11.4571C23.0107 11.368 23.1458 11.212 23.2085 11.0234C23.2713 10.8348 23.2566 10.6289 23.1677 10.4511L20.7752 5.66427C20.731 5.57616 20.67 5.4976 20.5955 5.43309C20.521 5.36857 20.4346 5.31937 20.3411 5.28829C20.2476 5.25721 20.1488 5.24486 20.0506 5.25194C19.9523 5.25903 19.8564 5.28541 19.7683 5.32958L17.1836 6.62146L20.2473 12.7499Z" stroke="#BD8B25" stroke-width="1.5" stroke-linecap="round" stroke-linejoin="round"/>
<path d="M17.2504 6.75H13.5004L9.2198 10.9022C9.14023 10.9817 9.07957 11.0781 9.04231 11.1843C9.00506 11.2905 8.99216 11.4037 9.00459 11.5155C9.01701 11.6273 9.05444 11.7349 9.11409 11.8303C9.17374 11.9257 9.25408 12.0064 9.34918 12.0666C10.9907 13.1156 13.2192 13.0434 15.0004 11.25L18.7504 14.25L20.2504 12.75" stroke="#BD8B25" stroke-width="1.5" stroke-linecap="round" stroke-linejoin="round"/>
<path d="M11.6306 20.248L7.71937 19.2702L5.25 17.5059" stroke="#BD8B25" stroke-width="1.5" stroke-linecap="round" stroke-linejoin="round"/>
</g>
<defs>
<clipPath id="clip0_2970_30746">
<rect width="24" height="24" fill="white"/>
</clipPath>
</defs>
</svg>
