<svg width="25" height="24" viewBox="0 0 25 24" fill="none" xmlns="http://www.w3.org/2000/svg">
<path d="M15.5 20.9995V12.9995C15.5 12.7343 15.3946 12.4799 15.2071 12.2924C15.0196 12.1048 14.7652 11.9995 14.5 11.9995H10.5C10.2348 11.9995 9.98043 12.1048 9.79289 12.2924C9.60536 12.4799 9.5 12.7343 9.5 12.9995V20.9995M3.5 9.99948C3.49993 9.70855 3.56333 9.4211 3.68579 9.1572C3.80824 8.89329 3.9868 8.65928 4.209 8.47148L11.209 2.47248C11.57 2.16739 12.0274 2 12.5 2C12.9726 2 13.43 2.16739 13.791 2.47248L20.791 8.47148C21.0132 8.65928 21.1918 8.89329 21.3142 9.1572C21.4367 9.4211 21.5001 9.70855 21.5 9.99948V18.9995C21.5 19.5299 21.2893 20.0386 20.9142 20.4137C20.5391 20.7888 20.0304 20.9995 19.5 20.9995H5.5C4.96957 20.9995 4.46086 20.7888 4.08579 20.4137C3.71071 20.0386 3.5 19.5299 3.5 18.9995V9.99948Z" stroke="#0C0C0C" stroke-width="1.5" stroke-linecap="round" stroke-linejoin="round"/>
</svg>
