<svg width="60" height="65" viewBox="0 0 60 65" fill="none" xmlns="http://www.w3.org/2000/svg">
<g filter="url(#filter0_d_2426_13919)">
<path fill-rule="evenodd" clip-rule="evenodd" d="M30 0C17.8497 0 8 9.84974 8 22C8 32.4391 15.2708 41.1801 25.0246 43.435L29.07 48.4196C29.6959 49.1908 30.8807 49.1658 31.4735 48.3689L35.1801 43.3867C44.8308 41.0575 52 32.366 52 22C52 9.84974 42.1503 0 30 0Z" fill="white"/>
</g>
<circle cx="30" cy="22" r="18" fill="#BD8B25"/>
<path d="M20 17L24.41 12.59C24.5961 12.4028 24.8173 12.2543 25.061 12.1531C25.3047 12.0518 25.5661 11.9998 25.83 12H34.17C34.4339 11.9998 34.6953 12.0518 34.939 12.1531C35.1827 12.2543 35.4039 12.4028 35.59 12.59L40 17M20 17H40M20 17V20C20 20.5304 20.2107 21.0391 20.5858 21.4142C20.9609 21.7893 21.4696 22 22 22M40 17V20C40 20.5304 39.7893 21.0391 39.4142 21.4142C39.0391 21.7893 38.5304 22 38 22M22 22V30C22 30.5304 22.2107 31.0391 22.5858 31.4142C22.9609 31.7893 23.4696 32 24 32H36C36.5304 32 37.0391 31.7893 37.4142 31.4142C37.7893 31.0391 38 30.5304 38 30V22M22 22C22.5843 21.9678 23.1423 21.7467 23.59 21.37C23.7093 21.2838 23.8528 21.2374 24 21.2374C24.1472 21.2374 24.2907 21.2838 24.41 21.37C24.8577 21.7467 25.4157 21.9678 26 22C26.5843 21.9678 27.1423 21.7467 27.59 21.37C27.7093 21.2838 27.8528 21.2374 28 21.2374C28.1472 21.2374 28.2907 21.2838 28.41 21.37C28.8577 21.7467 29.4157 21.9678 30 22C30.5843 21.9678 31.1423 21.7467 31.59 21.37C31.7093 21.2838 31.8528 21.2374 32 21.2374C32.1472 21.2374 32.2907 21.2838 32.41 21.37C32.8577 21.7467 33.4157 21.9678 34 22C34.5843 21.9678 35.1423 21.7467 35.59 21.37C35.7093 21.2838 35.8528 21.2374 36 21.2374C36.1472 21.2374 36.2907 21.2838 36.41 21.37C36.8577 21.7467 37.4157 21.9678 38 22M33 32V28C33 27.4696 32.7893 26.9609 32.4142 26.5858C32.0391 26.2107 31.5304 26 31 26H29C28.4696 26 27.9609 26.2107 27.5858 26.5858C27.2107 26.9609 27 27.4696 27 28V32" stroke="white" stroke-width="1.5" stroke-linecap="round" stroke-linejoin="round"/>
<defs>
<filter id="filter0_d_2426_13919" x="0" y="0" width="60" height="64.9824" filterUnits="userSpaceOnUse" color-interpolation-filters="sRGB">
<feFlood flood-opacity="0" result="BackgroundImageFix"/>
<feColorMatrix in="SourceAlpha" type="matrix" values="0 0 0 0 0 0 0 0 0 0 0 0 0 0 0 0 0 0 127 0" result="hardAlpha"/>
<feOffset dy="8"/>
<feGaussianBlur stdDeviation="4"/>
<feComposite in2="hardAlpha" operator="out"/>
<feColorMatrix type="matrix" values="0 0 0 0 0 0 0 0 0 0 0 0 0 0 0 0 0 0 0.15 0"/>
<feBlend mode="normal" in2="BackgroundImageFix" result="effect1_dropShadow_2426_13919"/>
<feBlend mode="normal" in="SourceGraphic" in2="effect1_dropShadow_2426_13919" result="shape"/>
</filter>
</defs>
</svg>
