<svg width="29" height="28" viewBox="0 0 29 28" fill="none" xmlns="http://www.w3.org/2000/svg">
<path d="M14.4999 13.5L23.646 5.08573C24.928 3.90636 27.0001 4.81568 27.0001 6.5576V24C27.0001 25.1046 26.1047 26 25.0001 26H6.46554C4.66476 26 3.78126 23.8065 5.07932 22.5583L14.4999 13.5Z" fill="#E8CF78"/>
<path d="M25 18.1667H21.5C20.8812 18.1667 20.2877 18.4125 19.8501 18.8501C19.4125 19.2877 19.1667 19.8812 19.1667 20.5V24M25 24V24.0117M14.5 7.66667V11.1667C14.5 11.7855 14.2542 12.379 13.8166 12.8166C13.379 13.2542 12.7855 13.5 12.1667 13.5H8.66667M4 13.5H4.01167M14.5 3H14.5117M14.5 18.1667V18.1783M19.1667 13.5H20.3333M25 13.5V13.5117M14.5 24V22.8333M5.16667 3H8.66667C9.311 3 9.83333 3.52233 9.83333 4.16667V7.66667C9.83333 8.311 9.311 8.83333 8.66667 8.83333H5.16667C4.52233 8.83333 4 8.311 4 7.66667V4.16667C4 3.52233 4.52233 3 5.16667 3ZM20.3333 3H23.8333C24.4777 3 25 3.52233 25 4.16667V7.66667C25 8.311 24.4777 8.83333 23.8333 8.83333H20.3333C19.689 8.83333 19.1667 8.311 19.1667 7.66667V4.16667C19.1667 3.52233 19.689 3 20.3333 3ZM5.16667 18.1667H8.66667C9.311 18.1667 9.83333 18.689 9.83333 19.3333V22.8333C9.83333 23.4777 9.311 24 8.66667 24H5.16667C4.52233 24 4 23.4777 4 22.8333V19.3333C4 18.689 4.52233 18.1667 5.16667 18.1667Z" stroke="#0C0C0C" stroke-width="1.5" stroke-linecap="round" stroke-linejoin="round"/>
</svg>
