<svg width="97" height="96" viewBox="0 0 97 96" fill="none" xmlns="http://www.w3.org/2000/svg">
<path d="M89.3472 85.6455C89.347 85.4153 89.291 85.1886 89.1838 84.9849L49.8023 9.71694C49.6782 9.47952 49.4914 9.28063 49.2623 9.14184C49.0331 9.00306 48.7703 8.92969 48.5024 8.92969C48.2345 8.92969 47.9717 9.00306 47.7425 9.14184C47.5134 9.28063 47.3266 9.47952 47.2025 9.71694L7.82106 84.9814C7.70651 85.198 7.64993 85.4405 7.65681 85.6855C7.6637 85.9304 7.73382 86.1694 7.86036 86.3792C7.9869 86.589 8.16556 86.7626 8.37898 86.883C8.5924 87.0033 8.83334 87.0665 9.07837 87.0662H87.9265C88.3033 87.0662 88.6646 86.9165 88.931 86.6501C89.1975 86.3837 89.3472 86.0223 89.3472 85.6455Z" fill="#EFD788"/>
<path d="M48.5024 8.92969C48.2347 8.92908 47.9719 9.00194 47.7427 9.14034C47.5135 9.27874 47.3266 9.47738 47.2025 9.71462L7.82106 84.9826C7.70651 85.1992 7.64993 85.4418 7.65681 85.6867C7.6637 85.9316 7.73382 86.1706 7.86036 86.3804C7.9869 86.5903 8.16556 86.7638 8.37898 86.8842C8.5924 87.0046 8.83334 87.0677 9.07837 87.0675H48.5024V8.92969Z" fill="#F7EBC3"/>
<path d="M48.4962 61.8477C49.2982 61.8477 50.0822 62.0855 50.749 62.531C51.4158 62.9766 51.9355 63.6099 52.2424 64.3508C52.5493 65.0917 52.6296 65.907 52.4732 66.6936C52.3167 67.4801 51.9305 68.2026 51.3634 68.7697C50.7964 69.3368 50.0739 69.7229 49.2873 69.8794C48.5007 70.0359 47.6854 69.9556 46.9445 69.6487C46.2036 69.3418 45.5703 68.8221 45.1248 68.1552C44.6792 67.4884 44.4414 66.7045 44.4414 65.9025C44.4414 64.8271 44.8686 63.7957 45.629 63.0353C46.3895 62.2749 47.4208 61.8477 48.4962 61.8477Z" fill="#0C0C0C"/>
<path d="M48.5023 64.4766C48.7839 64.4766 49.0593 64.5601 49.2935 64.7166C49.5277 64.8731 49.7102 65.0955 49.818 65.3557C49.9258 65.6159 49.954 65.9023 49.899 66.1785C49.8441 66.4548 49.7084 66.7085 49.5093 66.9077C49.3101 67.1069 49.0563 67.2425 48.7801 67.2975C48.5038 67.3524 48.2175 67.3242 47.9573 67.2164C47.697 67.1086 47.4746 66.9261 47.3181 66.6919C47.1617 66.4577 47.0781 66.1824 47.0781 65.9007C47.0781 65.523 47.2282 65.1608 47.4952 64.8937C47.7623 64.6266 48.1246 64.4766 48.5023 64.4766Z" fill="#F7EBC3"/>
<path d="M48.5 57.8093L48.5 32.043" stroke="#0C0C0C" stroke-width="2.66379" stroke-linecap="round" stroke-linejoin="round"/>
<path d="M28.9648 76.4141H68.0337" stroke="#0C0C0C" stroke-width="2.66379" stroke-linecap="round" stroke-linejoin="round"/>
<path d="M89.3472 85.6455C89.347 85.4153 89.291 85.1886 89.1838 84.9849L49.8023 9.71694C49.6782 9.47952 49.4914 9.28063 49.2623 9.14184C49.0331 9.00306 48.7703 8.92969 48.5024 8.92969C48.2345 8.92969 47.9717 9.00306 47.7426 9.14184C47.5134 9.28063 47.3266 9.47952 47.2025 9.71694L7.82106 84.9814C7.70651 85.198 7.64993 85.4405 7.65681 85.6855C7.6637 85.9304 7.73382 86.1694 7.86036 86.3792C7.9869 86.589 8.16556 86.7626 8.37898 86.883C8.5924 87.0033 8.83334 87.0665 9.07837 87.0662H87.9265C88.3033 87.0662 88.6646 86.9165 88.931 86.6501C89.1975 86.3837 89.3472 86.0223 89.3472 85.6455Z" stroke="#0C0C0C" stroke-width="2.66379" stroke-linecap="round" stroke-linejoin="round"/>
</svg>
