<svg width="25" height="24" viewBox="0 0 25 24" fill="none" xmlns="http://www.w3.org/2000/svg">
<path d="M2.5 7L6.91 2.59C7.09606 2.40283 7.31732 2.25434 7.56103 2.15308C7.80474 2.05182 8.06609 1.99979 8.33 2H16.67C16.9339 1.99979 17.1953 2.05182 17.439 2.15308C17.6827 2.25434 17.9039 2.40283 18.09 2.59L22.5 7M2.5 7H22.5M2.5 7V10C2.5 10.5304 2.71071 11.0391 3.08579 11.4142C3.46086 11.7893 3.96957 12 4.5 12M22.5 7V10C22.5 10.5304 22.2893 11.0391 21.9142 11.4142C21.5391 11.7893 21.0304 12 20.5 12M4.5 12V20C4.5 20.5304 4.71071 21.0391 5.08579 21.4142C5.46086 21.7893 5.96957 22 6.5 22H18.5C19.0304 22 19.5391 21.7893 19.9142 21.4142C20.2893 21.0391 20.5 20.5304 20.5 20V12M4.5 12C5.08426 11.9678 5.64227 11.7467 6.09 11.37C6.20932 11.2838 6.35279 11.2374 6.5 11.2374C6.64721 11.2374 6.79068 11.2838 6.91 11.37C7.35773 11.7467 7.91574 11.9678 8.5 12C9.08426 11.9678 9.64227 11.7467 10.09 11.37C10.2093 11.2838 10.3528 11.2374 10.5 11.2374C10.6472 11.2374 10.7907 11.2838 10.91 11.37C11.3577 11.7467 11.9157 11.9678 12.5 12C13.0843 11.9678 13.6423 11.7467 14.09 11.37C14.2093 11.2838 14.3528 11.2374 14.5 11.2374C14.6472 11.2374 14.7907 11.2838 14.91 11.37C15.3577 11.7467 15.9157 11.9678 16.5 12C17.0843 11.9678 17.6423 11.7467 18.09 11.37C18.2093 11.2838 18.3528 11.2374 18.5 11.2374C18.6472 11.2374 18.7907 11.2838 18.91 11.37C19.3577 11.7467 19.9157 11.9678 20.5 12M15.5 22V18C15.5 17.4696 15.2893 16.9609 14.9142 16.5858C14.5391 16.2107 14.0304 16 13.5 16H11.5C10.9696 16 10.4609 16.2107 10.0858 16.5858C9.71071 16.9609 9.5 17.4696 9.5 18V22" stroke="#7B7B7B" stroke-width="1.5" stroke-linecap="round" stroke-linejoin="round"/>
</svg>
